<svg width="947" height="947" viewBox="0 0 947 947" fill="none" xmlns="http://www.w3.org/2000/svg">
<mask id="mask0_1517_579" style="mask-type:alpha" maskUnits="userSpaceOnUse" x="0" y="0" width="947" height="947">
<path d="M853.146 520.829C823.813 498.699 823.813 448.301 853.146 426.171C912.097 381.696 947 326.513 947 266.738C947 119.423 735.007 0 473.5 0C211.993 0 0 119.423 0 266.738C0 326.513 34.903 381.696 93.8545 426.171C123.187 448.301 123.187 498.699 93.8545 520.829C34.903 565.304 0 620.487 0 680.262C0 827.577 211.993 947 473.5 947C735.007 947 947 827.577 947 680.262C947 620.487 912.097 565.304 853.146 520.829Z" fill="#7713D0"/>
</mask>
<g mask="url(#mask0_1517_579)">
<path d="M853.146 520.829C823.813 498.699 823.813 448.301 853.146 426.171C912.097 381.696 947 326.513 947 266.738C947 119.423 735.007 0 473.5 0C211.993 0 0 119.423 0 266.738C0 326.513 34.903 381.696 93.8545 426.171C123.187 448.301 123.187 498.699 93.8545 520.829C34.903 565.304 0 620.487 0 680.262C0 827.577 211.993 947 473.5 947C735.007 947 947 827.577 947 680.262C947 620.487 912.097 565.304 853.146 520.829Z" fill="#7713D0"/>
<path d="M788.328 879.5C775.589 885.892 762.234 891.903 748.317 897.5H198.681C184.764 891.903 171.409 885.892 158.67 879.5H788.328Z" fill="#7EA2F8"/>
<path d="M899.793 796.5C894.512 802.635 888.827 808.639 882.756 814.5H64.2422C58.1709 808.639 52.4859 802.635 47.2051 796.5H899.793Z" fill="#7EA2F8"/>
<path d="M943.356 713.5C942.018 719.566 940.318 725.568 938.27 731.5H8.72852C6.67963 725.568 4.98 719.566 3.6416 713.5H943.356Z" fill="#7EA2F8"/>
<path d="M938.772 630.5C940.76 636.433 942.4 642.435 943.678 648.5H3.32031C4.59769 642.435 6.23822 636.433 8.22559 630.5H938.772Z" fill="#7EA2F8"/>
<path d="M884.273 547.5C890.258 553.364 895.86 559.367 901.057 565.5H45.9414C51.1383 559.367 56.7398 553.364 62.7246 547.5H884.273Z" fill="#7EA2F8"/>
<path d="M831.753 464.5C830.944 470.457 830.944 476.543 831.753 482.5H115.245C116.054 476.543 116.054 470.457 115.245 464.5H831.753Z" fill="#7EA2F8"/>
<path d="M901.057 381.5C895.86 387.633 890.258 393.636 884.273 399.5H62.7246C56.7398 393.636 51.1383 387.633 45.9414 381.5H901.057Z" fill="#7EA2F8"/>
<path d="M943.678 298.5C942.4 304.565 940.76 310.567 938.772 316.5H8.22559C6.23822 310.567 4.59769 304.565 3.32031 298.5H943.678Z" fill="#7EA2F8"/>
<path d="M938.27 215.5C940.318 221.432 942.018 227.434 943.356 233.5H3.6416C4.98 227.434 6.67963 221.432 8.72852 215.5H938.27Z" fill="#7EA2F8"/>
<path d="M882.756 132.5C888.827 138.361 894.512 144.365 899.793 150.5H47.2051C52.4859 144.365 58.1709 138.361 64.2422 132.5H882.756Z" fill="#7EA2F8"/>
<path d="M748.317 49.5C762.234 55.0968 775.589 61.1075 788.328 67.5H158.67C171.409 61.1075 184.764 55.0968 198.681 49.5H748.317Z" fill="#7EA2F8"/>
</g>
</svg>
