<svg width="723" height="739" viewBox="0 0 723 739" fill="none" xmlns="http://www.w3.org/2000/svg">
<mask id="mask0_1519_776" style="mask-type:alpha" maskUnits="userSpaceOnUse" x="0" y="0" width="723" height="739">
<path d="M0.320312 465.661L98.7594 94.003L451.107 0.716797L722.507 272.152L623.466 643.971L271.4 738.307L0.320312 465.661Z" fill="#0072DD"/>
</mask>
<g mask="url(#mask0_1519_776)">
<path d="M0.320312 465.661L98.7594 94.003L451.107 0.716797L722.507 272.152L623.466 643.971L271.4 738.307L0.320312 465.661Z" fill="#0072DD"/>
<path d="M445.941 2.08496C446.898 9.7656 447.171 17.6323 446.692 25.6213C443.139 84.8063 405.6 128.777 375.892 156.155C387.278 162.446 398.285 169.021 408.875 175.677L409.112 175.825C420.924 183.248 443.476 197.422 459.269 218.273C467.989 229.785 476.152 245.144 478.787 264.221C481.481 283.729 477.772 302.658 469.617 319.852C451.975 357.046 420.093 377.808 394.17 389.957C352.113 409.664 303.609 419.468 258.487 429.44C253.334 430.578 248.293 431.692 243.406 432.791C243.848 433.34 244.296 433.893 244.749 434.452C290.751 491.268 312.435 568.36 271.203 634.525C257.883 655.899 239.777 672.983 218.537 685.139L0.320312 465.662L98.7596 94.0038L445.941 2.08496Z" fill="#53976B"/>
</g>
</svg>
