<svg width="753" height="1505" viewBox="0 0 753 1505" fill="none" xmlns="http://www.w3.org/2000/svg">
<mask id="mask0_1517_571" style="mask-type:alpha" maskUnits="userSpaceOnUse" x="0" y="0" width="753" height="1505">
<path d="M0.233398 0.608398C415.55 0.608539 752.231 337.231 752.23 752.476C752.23 1167.72 415.55 1504.34 0.233398 1504.34V1372.2C342.559 1372.2 620.069 1094.74 620.069 752.476C620.069 410.209 342.559 132.747 0.233398 132.747V0.608398Z" fill="#B9B9B9"/>
<path d="M0.233398 235.13C286.005 235.13 517.668 466.754 517.668 752.476C517.668 985.57 363.485 1182.66 151.525 1247.35C151.171 1247.46 150.817 1247.57 150.463 1247.68C141.067 1250.52 131.559 1253.11 121.945 1255.42C120.749 1255.71 119.551 1256 118.352 1256.28C114.329 1257.22 110.288 1258.11 106.229 1258.95C104.878 1259.23 103.525 1259.51 102.17 1259.78C94.9557 1261.22 87.6873 1262.51 80.3682 1263.65C54.2492 1267.71 27.4841 1269.82 0.226562 1269.82V1137.68C0.22872 1137.68 0.231241 1137.68 0.233398 1137.68L2.72461 1137.67C22.1476 1137.55 41.2292 1135.99 59.8691 1133.09C66.9733 1131.99 74.0132 1130.69 80.9834 1129.21C82.7896 1128.82 84.5909 1128.42 86.3877 1128.01C91.8359 1126.77 97.2402 1125.41 102.598 1123.94C103.112 1123.79 103.625 1123.65 104.139 1123.51C266.443 1078.16 385.501 929.222 385.501 752.477C385.501 539.733 213.007 367.27 0.226562 367.27V235.131C0.228686 235.131 0.231275 235.13 0.233398 235.13Z" fill="#B9B9B9"/>
<path d="M0.233398 458.991C162.348 458.991 293.768 590.389 293.768 752.476C293.768 914.562 162.348 1045.96 0.233398 1045.96V913.821C89.3574 913.821 161.606 841.584 161.606 752.476C161.606 663.367 89.3575 591.13 0.233398 591.13V458.991Z" fill="#B9B9B9"/>
</mask>
<g mask="url(#mask0_1517_571)">
<path d="M0.233398 0.608398C415.55 0.608539 752.231 337.231 752.23 752.476C752.23 1167.72 415.55 1504.34 0.233398 1504.34V1372.2C342.559 1372.2 620.069 1094.74 620.069 752.476C620.069 410.209 342.559 132.747 0.233398 132.747V0.608398Z" fill="#B9B9B9"/>
<path d="M0.233398 235.13C286.005 235.13 517.668 466.754 517.668 752.476C517.668 985.57 363.485 1182.66 151.525 1247.35C151.171 1247.46 150.817 1247.57 150.463 1247.68C141.067 1250.52 131.559 1253.11 121.945 1255.42C120.749 1255.71 119.551 1256 118.352 1256.28C114.329 1257.22 110.288 1258.11 106.229 1258.95C104.878 1259.23 103.525 1259.51 102.17 1259.78C94.9557 1261.22 87.6873 1262.51 80.3682 1263.65C54.2492 1267.71 27.4841 1269.82 0.226562 1269.82V1137.68C0.22872 1137.68 0.231241 1137.68 0.233398 1137.68L2.72461 1137.67C22.1476 1137.55 41.2292 1135.99 59.8691 1133.09C66.9733 1131.99 74.0132 1130.69 80.9834 1129.21C82.7896 1128.82 84.5909 1128.42 86.3877 1128.01C91.8359 1126.77 97.2402 1125.41 102.598 1123.94C103.112 1123.79 103.625 1123.65 104.139 1123.51C266.443 1078.16 385.501 929.222 385.501 752.477C385.501 539.733 213.007 367.27 0.226562 367.27V235.131C0.228686 235.131 0.231275 235.13 0.233398 235.13Z" fill="#B9B9B9"/>
<path d="M0.233398 458.991C162.348 458.991 293.768 590.389 293.768 752.476C293.768 914.562 162.348 1045.96 0.233398 1045.96V913.821C89.3574 913.821 161.606 841.584 161.606 752.476C161.606 663.367 89.3575 591.13 0.233398 591.13V458.991Z" fill="#B9B9B9"/>
<path d="M568.69 999.911C585.044 1015 601.146 1030.38 616.761 1046.3C633.6 1063.46 650.429 1081.7 666.668 1101.11C600.116 1228.02 498.364 1333.58 374.376 1404.82C344.908 1403.88 315.269 1400.74 285.498 1395.34C243.213 1387.68 188.496 1377.62 132.571 1358.05C234.21 1335.95 326.542 1288.92 402.843 1223.69C440.881 1222.81 478.744 1216.64 516.595 1205.15C507.172 1194.43 497.199 1183.76 486.729 1173.08C481.271 1167.52 475.747 1162.03 470.172 1156.59C510.371 1109.9 543.729 1057.16 568.69 999.911Z" fill="#7EA2F8"/>
<path d="M92.0928 1126.66C96.0386 1130.76 100.15 1134.69 104.296 1138.39C141.345 1171.46 193.014 1190 253.205 1203.88C221.256 1221.82 187.21 1236.46 151.525 1247.35C151.171 1247.46 150.817 1247.57 150.463 1247.68C141.067 1250.52 131.559 1253.11 121.945 1255.42C120.749 1255.71 119.551 1256 118.352 1256.28C114.329 1257.22 110.288 1258.11 106.229 1258.95C104.878 1259.24 103.525 1259.51 102.17 1259.78C94.9557 1261.22 87.6873 1262.51 80.3682 1263.65C54.2492 1267.71 27.4841 1269.82 0.226562 1269.82V1137.68C0.22872 1137.68 0.231241 1137.68 0.233398 1137.68L2.72461 1137.68C22.1475 1137.55 41.2292 1135.99 59.8691 1133.09C66.9733 1131.99 74.0133 1130.69 80.9834 1129.21C82.7896 1128.82 84.591 1128.42 86.3877 1128.01C88.2949 1127.58 90.1964 1127.13 92.0928 1126.66Z" fill="#7EA2F8"/>
<path d="M376.983 833.401C400.841 849.25 423.402 867.581 445.047 888.068C458.998 901.272 473.19 914.201 487.476 927.022C466.274 986.177 434.602 1040.35 394.693 1087.3C392.477 1085.33 390.261 1083.37 388.044 1081.4C365.08 1061.04 342.113 1040.67 319.826 1019.58C311.865 1012.04 304.031 1005.2 296.269 999.012C335.49 951.983 363.713 895.463 376.983 833.401Z" fill="#7EA2F8"/>
<path d="M161.105 765.245C188.349 766.02 212.865 769.931 231.979 773.617C252.705 777.613 272.467 783.098 291.396 789.957C283.276 853.646 254.738 910.959 212.553 955.129C207.575 953.791 202.542 952.634 197.439 951.65C151.098 942.714 126.5 946.343 114.144 954.79C92.2436 969.762 70.7569 1000.18 66.1211 1034.24C65.9152 1035.76 65.7214 1037.23 65.5371 1038.67C44.5357 1043.44 22.679 1045.96 0.233398 1045.96V913.822C85.059 913.822 154.595 848.384 161.105 765.245Z" fill="#7EA2F8"/>
<path d="M180.396 113.189C273.23 107.901 362.955 136.033 434.266 162.515C459.094 171.736 482.576 182.628 504.857 195.025C656.79 332.597 752.23 531.392 752.23 752.476C752.23 825.819 741.724 896.707 722.14 963.722C726.367 916.474 723.847 865.743 714.978 819.967C703.784 762.192 683.633 705.777 658.022 651.971C643.934 660.417 629.607 667.819 615.183 674.297C607.283 611.552 590 551.728 564.785 496.273C565.031 496.125 565.278 495.979 565.522 495.83C564.659 494.624 563.794 493.426 562.93 492.233C476.909 306.615 301.719 170.73 92.334 139.545C120.629 123.685 151.408 114.841 180.396 113.189Z" fill="#7EA2F8"/>
<path d="M301.034 511.769C302.971 512.445 304.878 513.068 306.752 513.632C359.93 529.621 416.973 535.822 467.251 529.457C493.149 583.573 509.915 642.891 515.554 705.418C471.711 713.498 426.874 714.941 383.35 711.547C375.411 636.401 345.864 567.699 301.034 511.769Z" fill="#7EA2F8"/>
<path d="M6.51855 459.058C146.669 462.002 262.661 563.157 288.427 696.465C276.756 693.668 265.341 690.58 254.238 687.242C184.814 666.368 110.971 617.423 58.3594 549.735C37.6387 523.076 19.5972 492.617 6.51855 459.058Z" fill="#7EA2F8"/>
<path d="M4.58691 235.15C92.057 235.871 174.353 258.291 246.354 297.291C227.026 294.366 208.515 293.216 190.771 294.227C188.726 294.344 183.202 295.729 177.927 299.902C173.545 303.367 170.599 307.681 169.338 313.741C161.797 349.985 168.746 384.068 186.344 415.119C131.172 384.627 67.7271 367.27 0.226562 367.27V245.841C1.59091 242.204 3.04561 238.64 4.58691 235.15Z" fill="#7EA2F8"/>
</g>
</svg>
