<svg width="1494" height="1282" viewBox="0 0 1494 1282" fill="none" xmlns="http://www.w3.org/2000/svg">
<mask id="mask0_1519_745" style="mask-type:alpha" maskUnits="userSpaceOnUse" x="0" y="0" width="1494" height="1282">
<path d="M0.880859 319.122L106.962 710.631L498.471 604.551L604.552 996.06L996.061 889.98L1102.14 1281.49L1493.65 1175.41L1175.41 0.879883L0.880859 319.122Z" fill="#53976B"/>
</mask>
<g mask="url(#mask0_1519_745)">
<path d="M0.878906 319.123L106.96 710.632L498.469 604.552L604.55 996.061L996.059 889.981L1102.14 1281.49L1493.65 1175.41L1175.41 0.880859L0.878906 319.123Z" fill="#53976B"/>
<path d="M1186.7 1137.28C1192.03 1135.85 1197.51 1139.02 1198.94 1144.35C1200.37 1149.69 1197.21 1155.17 1191.87 1156.6C1186.54 1158.03 1181.05 1154.86 1179.63 1149.53C1178.2 1144.19 1181.36 1138.71 1186.7 1137.28Z" fill="#7713D0"/>
<path d="M1267.83 1115.54C1273.17 1114.11 1278.65 1117.28 1280.08 1122.61C1281.51 1127.95 1278.35 1133.43 1273.01 1134.86C1267.68 1136.29 1262.19 1133.12 1260.76 1127.79C1259.33 1122.45 1262.5 1116.97 1267.83 1115.54Z" fill="#7713D0"/>
<path d="M1348.97 1093.8C1354.31 1092.37 1359.79 1095.54 1361.22 1100.87C1362.65 1106.21 1359.48 1111.69 1354.15 1113.12C1348.81 1114.55 1343.33 1111.38 1341.9 1106.05C1340.47 1100.71 1343.64 1095.23 1348.97 1093.8Z" fill="#7713D0"/>
<path d="M1161.07 1041.65C1166.41 1040.22 1171.89 1043.39 1173.32 1048.72C1174.75 1054.06 1171.58 1059.54 1166.25 1060.97C1160.92 1062.4 1155.43 1059.24 1154 1053.9C1152.57 1048.57 1155.74 1043.08 1161.07 1041.65Z" fill="#7713D0"/>
<path d="M1242.21 1019.91C1247.55 1018.48 1253.03 1021.65 1254.46 1026.98C1255.89 1032.32 1252.72 1037.8 1247.39 1039.23C1242.05 1040.66 1236.57 1037.5 1235.14 1032.16C1233.71 1026.83 1236.88 1021.34 1242.21 1019.91Z" fill="#7713D0"/>
<path d="M1323.35 998.172C1328.68 996.743 1334.17 999.909 1335.6 1005.24C1337.03 1010.58 1333.86 1016.06 1328.53 1017.49C1323.19 1018.92 1317.71 1015.75 1316.28 1010.42C1314.85 1005.09 1318.01 999.602 1323.35 998.172Z" fill="#7713D0"/>
<path d="M1135.45 946.028C1140.79 944.598 1146.27 947.764 1147.7 953.098C1149.13 958.433 1145.96 963.917 1140.63 965.346C1135.29 966.775 1129.81 963.609 1128.38 958.275C1126.95 952.94 1130.12 947.457 1135.45 946.028Z" fill="#7713D0"/>
<path d="M1216.59 924.286C1221.92 922.857 1227.41 926.023 1228.84 931.358C1230.26 936.692 1227.1 942.175 1221.76 943.605C1216.43 945.034 1210.95 941.868 1209.52 936.534C1208.09 931.199 1211.25 925.716 1216.59 924.286Z" fill="#7713D0"/>
<path d="M1297.73 902.545C1303.06 901.116 1308.54 904.282 1309.97 909.617C1311.4 914.951 1308.24 920.435 1302.9 921.865C1297.57 923.294 1292.08 920.128 1290.65 914.793C1289.23 909.459 1292.39 903.975 1297.73 902.545Z" fill="#7713D0"/>
<path d="M678.515 863.478C683.85 862.048 689.334 865.215 690.763 870.549C692.192 875.884 689.026 881.367 683.692 882.796C678.357 884.226 672.873 881.06 671.444 875.726C670.014 870.391 673.18 864.907 678.515 863.478Z" fill="#7713D0"/>
<path d="M1109.83 850.401C1115.16 848.971 1120.65 852.137 1122.07 857.472C1123.5 862.807 1120.34 868.29 1115 869.719C1109.67 871.148 1104.19 867.982 1102.76 862.648C1101.33 857.313 1104.49 851.83 1109.83 850.401Z" fill="#7713D0"/>
<path d="M759.653 841.738C764.987 840.308 770.471 843.473 771.901 848.808C773.33 854.143 770.164 859.627 764.829 861.056C759.495 862.485 754.012 859.319 752.582 853.985C751.153 848.65 754.318 843.167 759.653 841.738Z" fill="#7713D0"/>
<path d="M1190.97 828.66C1196.3 827.23 1201.78 830.396 1203.21 835.731C1204.64 841.065 1201.48 846.549 1196.14 847.979C1190.81 849.408 1185.32 846.242 1183.89 840.908C1182.46 835.573 1185.63 830.089 1190.97 828.66Z" fill="#7713D0"/>
<path d="M840.79 819.996C846.125 818.567 851.609 821.733 853.038 827.068C854.468 832.402 851.302 837.885 845.967 839.315C840.633 840.744 835.15 837.578 833.72 832.244C832.291 826.909 835.456 821.426 840.79 819.996Z" fill="#7713D0"/>
<path d="M1272.1 806.919C1277.44 805.49 1282.92 808.656 1284.35 813.991C1285.78 819.325 1282.61 824.808 1277.28 826.238C1271.94 827.667 1266.46 824.501 1265.03 819.166C1263.6 813.832 1266.77 808.349 1272.1 806.919Z" fill="#7713D0"/>
<path d="M921.928 798.255C927.263 796.826 932.747 799.992 934.176 805.327C935.606 810.661 932.44 816.145 927.105 817.575C921.77 819.004 916.287 815.838 914.858 810.503C913.428 805.169 916.594 799.685 921.928 798.255Z" fill="#7713D0"/>
<path d="M1003.07 776.515C1008.4 775.086 1013.88 778.252 1015.31 783.586C1016.74 788.921 1013.58 794.404 1008.24 795.833C1002.91 797.263 997.425 794.097 995.995 788.762C994.566 783.427 997.732 777.944 1003.07 776.515Z" fill="#7713D0"/>
<path d="M652.892 767.851C658.227 766.422 663.711 769.588 665.14 774.922C666.569 780.257 663.403 785.741 658.069 787.17C652.734 788.6 647.25 785.434 645.821 780.099C644.391 774.764 647.557 769.28 652.892 767.851Z" fill="#7713D0"/>
<path d="M1084.2 754.774C1089.54 753.345 1095.02 756.511 1096.45 761.845C1097.88 767.18 1094.71 772.663 1089.38 774.092C1084.05 775.521 1078.56 772.356 1077.13 767.022C1075.7 761.687 1078.87 756.203 1084.2 754.774Z" fill="#7713D0"/>
<path d="M734.03 746.111C739.364 744.681 744.848 747.847 746.278 753.182C747.707 758.517 744.541 764 739.206 765.429C733.872 766.859 728.389 763.692 726.959 758.358C725.53 753.023 728.695 747.54 734.03 746.111Z" fill="#7713D0"/>
<path d="M1165.34 733.034C1170.68 731.604 1176.16 734.77 1177.59 740.104C1179.02 745.439 1175.85 750.922 1170.52 752.352C1165.18 753.781 1159.7 750.615 1158.27 745.281C1156.84 739.946 1160.01 734.463 1165.34 733.034Z" fill="#7713D0"/>
<path d="M815.167 724.37C820.502 722.94 825.986 726.106 827.415 731.441C828.845 736.775 825.679 742.258 820.344 743.688C815.01 745.117 809.527 741.952 808.097 736.618C806.668 731.283 809.833 725.799 815.167 724.37Z" fill="#7713D0"/>
<path d="M1246.48 711.292C1251.81 709.863 1257.3 713.029 1258.73 718.364C1260.16 723.698 1256.99 729.181 1251.66 730.611C1246.32 732.04 1240.84 728.874 1239.41 723.539C1237.98 718.205 1241.15 712.722 1246.48 711.292Z" fill="#7713D0"/>
<path d="M896.305 702.629C901.64 701.2 907.124 704.365 908.553 709.7C909.983 715.034 906.816 720.518 901.482 721.948C896.147 723.377 890.664 720.211 889.235 714.876C887.805 709.542 890.971 704.059 896.305 702.629Z" fill="#7713D0"/>
<path d="M977.444 680.888C982.778 679.459 988.261 682.625 989.691 687.959C991.12 693.294 987.954 698.777 982.62 700.206C977.285 701.636 971.802 698.47 970.372 693.136C968.943 687.801 972.109 682.318 977.444 680.888Z" fill="#7713D0"/>
<path d="M627.269 672.225C632.604 670.796 638.088 673.962 639.517 679.296C640.946 684.631 637.78 690.114 632.446 691.543C627.111 692.973 621.627 689.807 620.198 684.472C618.768 679.138 621.934 673.654 627.269 672.225Z" fill="#7713D0"/>
<path d="M195.957 685.302C197.589 684.865 199.235 684.859 200.774 685.212L191.698 687.671C192.862 686.576 194.306 685.745 195.957 685.302Z" fill="#7713D0"/>
<path d="M1058.58 659.148C1063.92 657.719 1069.4 660.884 1070.83 666.218C1072.26 671.553 1069.09 677.037 1063.76 678.466C1058.42 679.895 1052.94 676.729 1051.51 671.395C1050.08 666.06 1053.25 660.577 1058.58 659.148Z" fill="#7713D0"/>
<path d="M708.407 650.484C713.741 649.054 719.225 652.22 720.655 657.555C722.084 662.89 718.918 668.373 713.583 669.802C708.249 671.232 702.765 668.066 701.335 662.732C699.906 657.397 703.072 651.913 708.407 650.484Z" fill="#7713D0"/>
<path d="M277.095 663.561C278.545 663.172 280.006 663.126 281.394 663.368L273.23 665.58C274.32 664.658 275.625 663.955 277.095 663.561Z" fill="#7713D0"/>
<path d="M1139.72 637.407C1145.05 635.977 1150.54 639.143 1151.97 644.478C1153.4 649.812 1150.23 655.296 1144.89 656.725C1139.56 658.154 1134.08 654.988 1132.65 649.654C1131.22 644.319 1134.38 638.836 1139.72 637.407Z" fill="#7713D0"/>
<path d="M789.544 628.743C794.879 627.314 800.363 630.479 801.792 635.814C803.222 641.148 800.056 646.632 794.721 648.062C789.386 649.491 783.903 646.325 782.474 640.991C781.045 635.656 784.21 630.173 789.544 628.743Z" fill="#7713D0"/>
<path d="M358.233 641.821C359.48 641.487 360.734 641.405 361.944 641.542L354.835 643.469C355.825 642.729 356.967 642.16 358.233 641.821Z" fill="#7713D0"/>
<path d="M1220.86 615.665C1226.19 614.236 1231.67 617.402 1233.1 622.737C1234.53 628.071 1231.37 633.555 1226.03 634.985C1220.7 636.414 1215.21 633.248 1213.79 627.913C1212.36 622.579 1215.52 617.095 1220.86 615.665Z" fill="#7713D0"/>
<path d="M870.682 607.002C876.017 605.573 881.501 608.739 882.93 614.074C884.359 619.408 881.193 624.891 875.859 626.321C870.524 627.75 865.041 624.584 863.612 619.249C862.182 613.915 865.348 608.432 870.682 607.002Z" fill="#7713D0"/>
<path d="M439.371 620.079C440.381 619.809 441.396 619.703 442.388 619.745L436.545 621.329C437.395 620.783 438.342 620.355 439.371 620.079Z" fill="#7713D0"/>
<path d="M170.334 589.675C175.669 588.246 181.152 591.412 182.581 596.746C184.011 602.081 180.845 607.564 175.51 608.993C170.176 610.423 164.693 607.258 163.263 601.923C161.834 596.589 165 591.105 170.334 589.675Z" fill="#7713D0"/>
<path d="M951.82 585.261C957.154 583.832 962.638 586.998 964.068 592.332C965.497 597.667 962.331 603.151 956.996 604.58C951.662 606.01 946.179 602.844 944.749 597.509C943.32 592.175 946.485 586.691 951.82 585.261Z" fill="#7713D0"/>
<path d="M601.646 576.598C606.981 575.169 612.465 578.335 613.894 583.669C615.323 589.004 612.157 594.487 606.823 595.916C601.488 597.346 596.004 594.18 594.575 588.845C593.146 583.511 596.311 578.027 601.646 576.598Z" fill="#7713D0"/>
<path d="M251.472 567.935C256.807 566.506 262.29 569.671 263.719 575.005C265.149 580.34 261.983 585.824 256.648 587.253C251.313 588.682 245.83 585.516 244.401 580.182C242.971 574.847 246.137 569.364 251.472 567.935Z" fill="#7713D0"/>
<path d="M1032.96 563.521C1038.29 562.092 1043.78 565.258 1045.21 570.592C1046.63 575.927 1043.47 581.41 1038.13 582.839C1032.8 584.268 1027.32 581.103 1025.89 575.768C1024.46 570.433 1027.62 564.95 1032.96 563.521Z" fill="#7713D0"/>
<path d="M682.784 554.857C688.118 553.427 693.602 556.593 695.032 561.928C696.461 567.263 693.295 572.747 687.96 574.176C682.626 575.606 677.142 572.439 675.712 567.105C674.283 561.77 677.449 556.286 682.784 554.857Z" fill="#7713D0"/>
<path d="M332.61 546.194C337.944 544.764 343.427 547.93 344.857 553.265C346.286 558.599 343.121 564.082 337.787 565.512C332.452 566.941 326.968 563.775 325.538 558.441C324.109 553.106 327.275 547.623 332.61 546.194Z" fill="#7713D0"/>
<path d="M1114.1 541.78C1119.43 540.35 1124.91 543.516 1126.34 548.851C1127.77 554.186 1124.61 559.669 1119.27 561.098C1113.94 562.527 1108.45 559.362 1107.02 554.028C1105.6 548.693 1108.76 543.209 1114.1 541.78Z" fill="#7713D0"/>
<path d="M763.921 533.117C769.256 531.687 774.74 534.853 776.169 540.188C777.598 545.522 774.432 551.005 769.098 552.435C763.763 553.864 758.28 550.698 756.851 545.364C755.422 540.029 758.587 534.546 763.921 533.117Z" fill="#7713D0"/>
<path d="M413.747 524.453C419.082 523.024 424.565 526.189 425.995 531.524C427.424 536.858 424.259 542.342 418.924 543.772C413.59 545.201 408.106 542.035 406.676 536.701C405.247 531.366 408.413 525.883 413.747 524.453Z" fill="#7713D0"/>
<path d="M1195.23 520.039C1200.57 518.61 1206.05 521.775 1207.48 527.11C1208.91 532.444 1205.74 537.928 1200.41 539.358C1195.07 540.787 1189.59 537.621 1188.16 532.286C1186.73 526.952 1189.9 521.469 1195.23 520.039Z" fill="#7713D0"/>
<path d="M845.059 511.375C850.394 509.946 855.878 513.112 857.307 518.447C858.736 523.781 855.57 529.264 850.236 530.694C844.901 532.123 839.418 528.958 837.989 523.623C836.559 518.289 839.724 512.805 845.059 511.375Z" fill="#7713D0"/>
<path d="M494.885 502.712C500.22 501.283 505.703 504.449 507.132 509.784C508.561 515.118 505.396 520.601 500.062 522.031C494.727 523.46 489.243 520.294 487.814 514.959C486.385 509.625 489.551 504.142 494.885 502.712Z" fill="#7713D0"/>
<path d="M144.711 494.049C150.046 492.62 155.529 495.785 156.958 501.119C158.388 506.454 155.222 511.938 149.887 513.368C144.553 514.797 139.069 511.631 137.64 506.296C136.211 500.962 139.377 495.479 144.711 494.049Z" fill="#7713D0"/>
<path d="M926.197 489.635C931.531 488.206 937.015 491.372 938.445 496.706C939.874 502.041 936.708 507.524 931.373 508.953C926.039 510.383 920.556 507.217 919.126 501.882C917.697 496.548 920.862 491.065 926.197 489.635Z" fill="#7713D0"/>
<path d="M576.023 480.971C581.357 479.542 586.84 482.708 588.27 488.042C589.699 493.377 586.534 498.861 581.2 500.29C575.865 501.72 570.381 498.554 568.952 493.219C567.522 487.884 570.688 482.4 576.023 480.971Z" fill="#7713D0"/>
<path d="M225.849 472.308C231.184 470.879 236.667 474.045 238.096 479.379C239.525 484.714 236.359 490.197 231.025 491.626C225.69 493.056 220.207 489.89 218.778 484.555C217.349 479.22 220.514 473.737 225.849 472.308Z" fill="#7713D0"/>
<path d="M1007.34 467.894C1012.67 466.465 1018.15 469.631 1019.58 474.965C1021.01 480.3 1017.85 485.783 1012.51 487.212C1007.18 488.642 1001.69 485.476 1000.26 480.142C998.835 474.807 1002 469.323 1007.34 467.894Z" fill="#7713D0"/>
<path d="M657.161 459.231C662.495 457.801 667.979 460.967 669.409 466.302C670.838 471.637 667.672 477.12 662.337 478.549C657.003 479.979 651.519 476.813 650.089 471.478C648.66 466.143 651.826 460.66 657.161 459.231Z" fill="#7713D0"/>
<path d="M306.987 450.567C312.321 449.137 317.804 452.304 319.234 457.638C320.663 462.973 317.497 468.457 312.163 469.886C306.828 471.315 301.345 468.149 299.915 462.815C298.486 457.48 301.652 451.996 306.987 450.567Z" fill="#7713D0"/>
<path d="M1088.47 446.154C1093.81 444.724 1099.29 447.89 1100.72 453.224C1102.15 458.559 1098.98 464.043 1093.65 465.472C1088.31 466.901 1082.83 463.735 1081.4 458.401C1079.97 453.066 1083.14 447.583 1088.47 446.154Z" fill="#7713D0"/>
<path d="M738.298 437.49C743.633 436.06 749.117 439.226 750.546 444.561C751.976 449.895 748.81 455.378 743.475 456.808C738.14 458.237 732.656 455.072 731.227 449.738C729.798 444.403 732.964 438.919 738.298 437.49Z" fill="#7713D0"/>
<path d="M388.124 428.827C393.459 427.397 398.942 430.563 400.371 435.898C401.801 441.232 398.635 446.715 393.301 448.145C387.967 449.574 382.483 446.408 381.053 441.074C379.624 435.739 382.79 430.256 388.124 428.827Z" fill="#7713D0"/>
<path d="M1169.61 424.412C1174.95 422.983 1180.43 426.149 1181.86 431.484C1183.29 436.818 1180.12 442.301 1174.79 443.731C1169.45 445.16 1163.97 441.994 1162.54 436.66C1161.11 431.325 1164.28 425.842 1169.61 424.412Z" fill="#7713D0"/>
<path d="M819.436 415.749C824.771 414.32 830.254 417.485 831.684 422.82C833.113 428.154 829.947 433.638 824.613 435.068C819.278 436.497 813.795 433.331 812.366 427.996C810.936 422.662 814.102 417.179 819.436 415.749Z" fill="#7713D0"/>
<path d="M469.262 407.085C474.597 405.656 480.08 408.822 481.509 414.157C482.939 419.491 479.773 424.974 474.439 426.404C469.104 427.833 463.62 424.668 462.191 419.333C460.761 413.999 463.927 408.515 469.262 407.085Z" fill="#7713D0"/>
<path d="M119.088 398.422C124.423 396.993 129.906 400.159 131.335 405.493C132.765 410.828 129.599 416.311 124.264 417.741C118.929 419.17 113.446 416.004 112.017 410.669C110.588 405.335 113.754 399.852 119.088 398.422Z" fill="#7713D0"/>
<path d="M900.574 394.008C905.908 392.579 911.392 395.745 912.822 401.079C914.251 406.414 911.085 411.897 905.75 413.327C900.416 414.756 894.933 411.59 893.503 406.255C892.074 400.921 895.239 395.438 900.574 394.008Z" fill="#7713D0"/>
<path d="M550.4 385.345C555.734 383.916 561.217 387.081 562.647 392.415C564.076 397.75 560.911 403.234 555.577 404.663C550.242 406.093 544.758 402.927 543.329 397.592C541.899 392.258 545.065 386.775 550.4 385.345Z" fill="#7713D0"/>
<path d="M200.226 376.681C205.561 375.252 211.044 378.418 212.473 383.752C213.902 389.087 210.736 394.57 205.402 395.999C200.067 397.429 194.584 394.263 193.155 388.929C191.725 383.594 194.891 378.11 200.226 376.681Z" fill="#7713D0"/>
<path d="M981.711 372.267C987.046 370.838 992.53 374.004 993.959 379.338C995.389 384.673 992.223 390.157 986.888 391.586C981.554 393.016 976.07 389.849 974.641 384.515C973.212 379.18 976.377 373.697 981.711 372.267Z" fill="#7713D0"/>
<path d="M631.537 363.604C636.872 362.174 642.356 365.34 643.786 370.675C645.215 376.01 642.049 381.493 636.714 382.922C631.38 384.352 625.896 381.186 624.466 375.851C623.037 370.516 626.203 365.033 631.537 363.604Z" fill="#7713D0"/>
<path d="M281.364 354.941C286.698 353.511 292.181 356.677 293.611 362.011C295.04 367.346 291.874 372.83 286.539 374.259C281.205 375.688 275.722 372.522 274.292 367.188C272.863 361.853 276.029 356.37 281.364 354.941Z" fill="#7713D0"/>
<path d="M1062.85 350.527C1068.18 349.098 1073.67 352.263 1075.1 357.598C1076.53 362.933 1073.36 368.416 1068.03 369.845C1062.69 371.274 1057.21 368.108 1055.78 362.774C1054.35 357.439 1057.52 351.956 1062.85 350.527Z" fill="#7713D0"/>
<path d="M712.675 341.863C718.01 340.433 723.494 343.599 724.923 348.934C726.353 354.269 723.187 359.753 717.852 361.182C712.517 362.611 707.033 359.445 705.604 354.111C704.174 348.776 707.341 343.292 712.675 341.863Z" fill="#7713D0"/>
<path d="M362.501 333.2C367.836 331.77 373.319 334.936 374.748 340.271C376.178 345.605 373.012 351.089 367.677 352.518C362.343 353.947 356.86 350.782 355.43 345.448C354.001 340.113 357.167 334.629 362.501 333.2Z" fill="#7713D0"/>
<path d="M1143.99 328.785C1149.32 327.356 1154.81 330.522 1156.23 335.857C1157.66 341.191 1154.5 346.674 1149.16 348.104C1143.83 349.533 1138.35 346.368 1136.92 341.034C1135.49 335.699 1138.65 330.215 1143.99 328.785Z" fill="#7713D0"/>
<path d="M793.813 320.122C799.148 318.693 804.631 321.859 806.061 327.194C807.49 332.528 804.324 338.011 798.99 339.441C793.655 340.87 788.172 337.704 786.743 332.369C785.313 327.035 788.478 321.552 793.813 320.122Z" fill="#7713D0"/>
<path d="M443.639 311.459C448.974 310.03 454.457 313.195 455.886 318.53C457.316 323.864 454.15 329.348 448.816 330.778C443.481 332.207 437.997 329.041 436.568 323.706C435.138 318.372 438.304 312.889 443.639 311.459Z" fill="#7713D0"/>
<path d="M874.951 298.381C880.285 296.952 885.769 300.118 887.199 305.452C888.628 310.787 885.462 316.27 880.127 317.7C874.793 319.129 869.31 315.964 867.88 310.629C866.451 305.295 869.616 299.811 874.951 298.381Z" fill="#7713D0"/>
<path d="M524.777 289.718C530.111 288.289 535.594 291.455 537.024 296.789C538.453 302.124 535.288 307.607 529.954 309.036C524.619 310.466 519.135 307.3 517.705 301.965C516.276 296.631 519.442 291.148 524.777 289.718Z" fill="#7713D0"/>
<path d="M956.088 276.641C961.423 275.212 966.907 278.378 968.336 283.712C969.765 289.047 966.6 294.53 961.265 295.959C955.93 297.389 950.447 294.223 949.018 288.888C947.589 283.554 950.754 278.071 956.088 276.641Z" fill="#7713D0"/>
<path d="M605.914 267.977C611.249 266.548 616.732 269.714 618.162 275.048C619.591 280.383 616.426 285.867 611.091 287.296C605.757 288.726 600.273 285.56 598.843 280.225C597.414 274.89 600.58 269.406 605.914 267.977Z" fill="#7713D0"/>
<path d="M1037.23 254.9C1042.56 253.471 1048.04 256.637 1049.47 261.971C1050.9 267.306 1047.74 272.789 1042.4 274.218C1037.07 275.647 1031.59 272.482 1030.16 267.148C1028.73 261.813 1031.89 256.329 1037.23 254.9Z" fill="#7713D0"/>
<path d="M687.052 246.237C692.387 244.807 697.871 247.973 699.3 253.308C700.729 258.642 697.563 264.126 692.229 265.555C686.894 266.984 681.41 263.818 679.981 258.484C678.552 253.149 681.718 247.666 687.052 246.237Z" fill="#7713D0"/>
<path d="M1118.36 233.16C1123.7 231.73 1129.18 234.895 1130.61 240.23C1132.04 245.564 1128.88 251.048 1123.54 252.478C1118.21 253.907 1112.72 250.741 1111.29 245.407C1109.86 240.072 1113.03 234.589 1118.36 233.16Z" fill="#7713D0"/>
<path d="M768.19 224.495C773.524 223.066 779.008 226.232 780.438 231.567C781.867 236.901 778.701 242.384 773.367 243.814C768.032 245.243 762.548 242.078 761.119 236.744C759.689 231.409 762.855 225.925 768.19 224.495Z" fill="#7713D0"/>
<path d="M849.328 202.755C854.662 201.326 860.146 204.491 861.576 209.826C863.005 215.16 859.839 220.644 854.504 222.074C849.17 223.503 843.687 220.337 842.257 215.002C840.828 209.668 843.993 204.185 849.328 202.755Z" fill="#7713D0"/>
<path d="M930.465 181.014C935.8 179.585 941.284 182.751 942.713 188.085C944.143 193.42 940.977 198.903 935.642 200.332C930.307 201.762 924.824 198.596 923.395 193.261C921.966 187.927 925.131 182.444 930.465 181.014Z" fill="#7713D0"/>
<path d="M1011.6 159.273C1016.94 157.843 1022.42 161.01 1023.85 166.344C1025.28 171.679 1022.11 177.163 1016.78 178.592C1011.45 180.021 1005.96 176.855 1004.53 171.521C1003.1 166.186 1006.27 160.702 1011.6 159.273Z" fill="#7713D0"/>
<path d="M1092.74 137.533C1098.08 136.103 1103.56 139.269 1104.99 144.604C1106.42 149.938 1103.25 155.422 1097.92 156.851C1092.58 158.28 1087.1 155.114 1085.67 149.78C1084.24 144.445 1087.41 138.962 1092.74 137.533Z" fill="#7713D0"/>
</g>
</svg>
