<svg width="1830" height="1017" viewBox="0 0 1830 1017" fill="none" xmlns="http://www.w3.org/2000/svg">
<mask id="mask0_1517_705" style="mask-type:alpha" maskUnits="userSpaceOnUse" x="0" y="0" width="1830" height="1017">
<path d="M522.952 628.648C562.165 524.712 679.372 469.404 784.528 505.213C889.685 541.023 1006.89 485.715 1046.1 381.779C1085.32 277.843 1202.52 222.535 1307.68 258.345C1412.84 294.155 1530.04 238.847 1569.26 134.911C1608.47 30.9753 1723.78 -24.9787 1828.94 10.8311L1829.39 1015.67L0.571405 1016.49L0.511725 884.486C0.508425 877.315 1.71976 870.163 4.60326 863.597C47.335 766.302 159.662 717.444 261.376 752.082C366.533 787.892 483.739 732.583 522.952 628.648Z" fill="black"/>
</mask>
<g mask="url(#mask0_1517_705)">
<path d="M522.95 628.648C562.163 524.712 679.37 469.404 784.526 505.213C889.683 541.023 1006.89 485.715 1046.1 381.779C1085.32 277.843 1202.52 222.535 1307.68 258.345C1412.84 294.155 1530.04 238.847 1569.26 134.911C1608.47 30.9753 1723.78 -24.9787 1828.93 10.8311L1829.39 1015.67L0.569448 1016.49L0.509772 884.486C0.506477 877.315 1.71781 870.163 4.60131 863.597C47.3331 766.302 159.66 717.444 261.374 752.082C366.531 787.892 483.737 732.583 522.95 628.648Z" fill="black"/>
<path d="M1754.54 0.206194C1779.16 -0.904671 1804.32 2.44992 1828.94 10.8312L1829.39 1015.67L1766.09 1015.69C1775.42 933.583 1783.7 845.017 1775.51 824.194C1769 807.642 1746.41 794.688 1739.03 791.035C1718.32 780.776 1683.35 848.96 1675.48 860.003C1638.45 911.852 1597.64 965.989 1554.47 1015.79L1448.13 1015.84C1497.5 918.969 1590.43 859.678 1656.64 777.428C1666.63 765.013 1621.67 718.633 1621.57 718.528C1621.57 718.528 1603.8 731.971 1601.06 734.047C1581.24 749.045 1560.31 759.852 1539.49 773.042C1511.35 790.86 1221.78 921.825 1230.81 856.584C1234.56 829.478 1271.1 802.811 1293.78 791.86C1361.19 759.283 1427.78 724.93 1494.62 691.17C1517.86 679.431 1539.43 664.245 1562.55 653.065C1565.1 651.841 1579.98 643.662 1580.07 643.611C1580.07 643.611 1571.01 608.674 1567.44 594.309C1564.1 580.811 1569.46 564.07 1570.9 553.735C1570.9 553.735 1559.21 554.01 1557.89 554.083C1548.95 554.611 1540.8 554.625 1531.85 554.792C1503.77 555.317 1475.46 557.106 1447.41 556.031C1364.02 552.827 1286.19 534.711 1204.5 523.372C1183.06 520.386 1119.84 519.46 1110.53 491.951C1106.76 480.801 1129.97 467.748 1136.13 463.089C1160.36 444.751 1208.87 440.777 1238.06 444.83C1295.15 452.76 1357.79 448.092 1414 461.699C1460.57 472.98 1516.9 478.162 1564.23 484.737C1582.25 487.24 1637.42 457.845 1626 420.921C1614.15 382.578 1568.8 360.351 1545.69 329.8C1523.25 300.141 1499.03 271.616 1474.85 243.088C1498.27 230.217 1519.31 212.913 1536.46 191.877C1568.81 237.444 1628.73 344.754 1664.83 351.691C1684.03 355.38 1732.83 309.43 1755.02 300.529C1755.01 300.494 1749.48 277.768 1749.73 268.459C1751.02 220.573 1750.31 171.029 1749.38 122.542C1748.61 82.2618 1752.05 41.1666 1754.54 0.206194Z" fill="#EFD919"/>
</g>
</svg>
