<svg width="572" height="740" viewBox="0 0 572 740" fill="none" xmlns="http://www.w3.org/2000/svg">
<mask id="mask0_1517_575" style="mask-type:alpha" maskUnits="userSpaceOnUse" x="0" y="0" width="572" height="740">
<path d="M0 286C0 128.047 128.047 0 286 0C443.953 0 572 128.047 572 286V740H0V286Z" fill="#FF5601"/>
</mask>
<g mask="url(#mask0_1517_575)">
<path d="M0 286C0 128.047 128.047 0 286 0C443.953 0 572 128.047 572 286V740H0V286Z" fill="#FF5601"/>
<path d="M361.306 477.49C385.559 459.958 454.262 425.848 490.309 446.264C559.865 485.66 520.081 563.068 468.986 594.097C381.827 647.026 311.479 695.892 254.842 740H44.4863C140.549 625.958 233.52 569.87 361.306 477.49Z" fill="white"/>
<path d="M572 740H410.511C421.715 729.809 435.66 718.698 459.881 703.163C476.934 692.225 529.447 658.723 572 652.646V740Z" fill="white"/>
<path d="M301.104 196.045C332.713 178.258 401.814 148.196 441.916 179.854C528.506 248.198 361.701 377.125 344.942 392.072C196.874 524.107 103.006 529.984 0 703.749V480.916C85.1077 369.843 196.81 254.749 301.104 196.045Z" fill="white"/>
<path d="M171.697 23.7549C180.232 28.8675 187.655 35.522 194.271 43.3682C238.454 95.7691 183.918 191.171 177.941 199.85C126.686 274.398 62.3733 335.922 0 399.412V286C0 168.684 70.6355 67.8657 171.697 23.7549Z" fill="white"/>
</g>
</svg>
