<svg width="790" height="395" viewBox="0 0 790 395" fill="none" xmlns="http://www.w3.org/2000/svg">
<mask id="mask0_1517_610" style="mask-type:alpha" maskUnits="userSpaceOnUse" x="0" y="0" width="790" height="395">
<path d="M790 0C790 218.152 613.152 395 395 395C176.848 395 0 218.152 0 0H239.58C239.58 85.8362 309.164 155.42 395 155.42C480.836 155.42 550.42 85.8362 550.42 0H790Z" fill="#FD86CB"/>
</mask>
<g mask="url(#mask0_1517_610)">
<path d="M790 0C790 218.152 613.152 395 395 395C176.848 395 0 218.152 0 0H239.58C239.58 85.8362 309.164 155.42 395 155.42C480.836 155.42 550.42 85.8362 550.42 0H790Z" fill="#FD86CB"/>
<path d="M601.054 0C608.449 37.5581 614.351 75.389 616.281 113.814C619.775 183.328 620.165 268.166 619.168 325.271C555.482 369.245 478.249 395 395 395C203.146 395 43.2382 258.22 7.47266 76.8564C9.41128 77.511 11.3141 78.2952 13.1699 79.2178C109.142 109.491 240.696 209.872 303.161 245.103C317.551 255.721 382.448 299.624 400.875 283.689C422.096 265.339 420.569 184.939 421.174 159.994C421.226 157.857 421.235 155.591 421.21 153.217C494.565 140.758 550.42 76.9033 550.42 0H601.054Z" fill="#EFD919"/>
</g>
</svg>
