<svg width="1032" height="1041" viewBox="0 0 1032 1041" fill="none" xmlns="http://www.w3.org/2000/svg">
<mask id="mask0_1517_522" style="mask-type:alpha" maskUnits="userSpaceOnUse" x="0" y="0" width="1032" height="1041">
<path d="M0 520.5C0 319.065 0 0 516 0C1032 0 1032 319.065 1032 520.5C1032 721.935 1032 1041 516 1041C0 1041 0 721.935 0 520.5Z" fill="black"/>
</mask>
<g mask="url(#mask0_1517_522)">
<path d="M0 520.5C0 319.065 0 0 516 0C1032 0 1032 319.065 1032 520.5C1032 721.935 1032 1041 516 1041C0 1041 0 721.935 0 520.5Z" fill="black"/>
<path d="M552.352 1040.45C540.528 1040.81 528.414 1041 516 1041C506.973 1041 498.104 1040.9 489.39 1040.71L521.146 1025.91L552.352 1040.45Z" fill="#115612"/>
<path d="M881.443 949.133C873.423 954.976 864.975 960.604 856.077 965.998L843.033 959.921L709.243 1022.26C696.876 1024.99 684.035 1027.44 670.701 1029.6L521.145 959.921L368.992 1030.81C359.481 1029.37 350.215 1027.78 341.188 1026.05L199.253 959.92L180.432 968.688C171.376 963.37 162.775 957.814 154.605 952.039L199.253 931.237L360.196 1006.23L521.146 931.237L682.092 1006.23L843.034 931.237L881.443 949.133Z" fill="#115612"/>
<path d="M947.496 885.234C942.06 892.253 936.275 899.122 930.117 905.821L843.033 865.248L682.093 940.237L521.145 865.248L360.196 940.236L199.253 865.247L105 909.161C98.7192 902.521 92.8145 895.708 87.2627 888.742L199.253 836.564L360.196 911.553L521.146 836.564L682.092 911.553L843.034 836.564L947.496 885.234Z" fill="#115612"/>
<path d="M990.995 810.828C987.585 818.761 983.89 826.603 979.889 834.337L843.033 770.575L682.093 845.564L521.145 770.575L360.196 845.563L199.253 770.574L54.1328 838.188C50.0343 830.502 46.2465 822.703 42.7451 814.811L199.253 741.892L360.196 816.88L521.146 741.892L682.092 816.88L843.034 741.892L990.995 810.828Z" fill="#115612"/>
<path d="M1003.98 722.207L1019.36 715.041C1017.37 725.719 1015.06 736.377 1012.39 746.975L1003.98 750.891L843.033 675.902L682.093 750.892L521.145 675.902L360.196 750.891L199.253 675.901L38.3057 750.891L18.2793 741.56C15.745 731.014 13.5629 720.414 11.6826 709.803L38.3057 722.207L199.253 647.219L360.196 722.207L521.146 647.219L682.092 722.207L843.034 647.219L1003.98 722.207Z" fill="#115612"/>
<path d="M1003.98 627.534L1030.37 615.238C1029.9 625.005 1029.28 634.872 1028.48 644.804L1003.98 656.218L843.033 581.229L682.093 656.219L521.145 581.229L360.196 656.219L199.253 581.229L38.3057 656.219L3.13281 639.831C2.39209 629.917 1.82733 620.074 1.39551 610.337L38.3057 627.534L199.253 552.546L360.196 627.534L521.146 552.546L682.092 627.534L843.034 552.546L1003.98 627.534Z" fill="#115612"/>
<path d="M1003.98 532.861L1032 519.808C1032 520.039 1032 520.269 1032 520.5C1032 529.611 1032 538.963 1031.95 548.515L1003.98 561.545L843.033 486.557L682.093 561.546L521.145 486.557L360.196 561.545L199.253 486.556L38.3057 561.545L0.0302734 543.711C0.0027976 535.823 0 528.078 0 520.5C0 518.681 0.000596415 516.852 0.000976562 515.014L38.3057 532.861L199.253 457.873L360.196 532.861L521.146 457.873L682.092 532.861L843.034 457.873L1003.98 532.861Z" fill="#115612"/>
<path d="M1003.98 438.188L1030.38 425.89C1030.84 435.396 1031.18 444.808 1031.41 454.093L1003.98 466.872L843.033 391.884L682.093 466.873L521.145 391.884L360.196 466.872L199.253 391.883L38.3057 466.872L0.71582 449.358C0.98339 440.084 1.35298 430.69 1.8584 421.207L38.3057 438.188L199.253 363.2L360.196 438.188L521.146 363.2L682.092 438.188L843.034 363.2L1003.98 438.188Z" fill="#115612"/>
<path d="M1003.98 343.516L1021.07 335.553C1022.59 344.505 1023.9 353.461 1025.02 362.397L1003.98 372.199L843.033 297.211L682.093 372.2L521.145 297.211L360.196 372.199L199.253 297.21L38.3057 372.199L7.56348 357.876C8.74626 348.964 10.1146 340.036 11.6963 331.117L38.3057 343.516L199.253 268.527L360.196 343.516L521.146 268.527L682.092 343.516L843.034 268.527L1003.98 343.516Z" fill="#115612"/>
<path d="M997.28 245.72C1001.06 255.681 1004.43 265.76 1007.43 275.919L1003.98 277.526L843.033 202.538L682.093 277.527L521.145 202.538L360.196 277.526L199.253 202.537L38.3057 277.526L25.832 271.714C28.3796 263.396 31.1781 255.136 34.2529 246.954L38.3057 248.843L199.253 173.854L360.196 248.843L521.146 173.854L682.092 248.843L843.034 173.854L997.28 245.72Z" fill="#115612"/>
<path d="M898.19 104.879C917.618 120.977 934.221 138.456 948.417 156.965L843.033 107.865L682.093 182.854L521.145 107.865L360.196 182.854L199.253 107.864L78.1162 164.304C90.6158 147.01 105.114 130.553 121.934 115.205L199.253 79.1816L360.196 154.17L521.146 79.1816L682.092 154.17L843.034 79.1816L898.19 104.879Z" fill="#115612"/>
<path d="M516 0C529.629 0 542.898 0.224974 555.816 0.662109L682.092 59.4971L748.229 28.6807C760.778 32.3419 772.772 36.318 784.235 40.5889L682.093 88.1816L521.145 13.1924L360.196 88.1807L253.53 38.4814C265.192 34.3015 277.39 30.4214 290.149 26.8604L360.196 59.4971L487.156 0.34375C496.587 0.116586 506.2 4.48007e-08 516 0Z" fill="#115612"/>
</g>
</svg>
