<svg width="1175" height="507" viewBox="0 0 1175 507" fill="none" xmlns="http://www.w3.org/2000/svg">
<mask id="mask0_1517_565" style="mask-type:alpha" maskUnits="userSpaceOnUse" x="0" y="0" width="1175" height="507">
<path d="M0 409.03L0 506.967C79.642 505.307 143.693 440.257 143.693 360.254L143.693 166.041C143.693 119.771 173.47 97.8717 192.59 97.8717C211.71 97.8717 241.487 119.771 241.487 166.041L241.487 340.959C241.487 424.04 299.333 507 388.301 507C477.269 507 535.115 424.04 535.115 340.959V166.041C535.115 119.771 564.892 97.8717 584.012 97.8717C603.132 97.8717 632.909 119.771 632.909 166.041V340.959C632.909 424.04 690.754 507 779.723 507C868.691 507 926.536 424.04 926.536 340.959V166.041C926.536 119.771 956.314 97.8717 975.433 97.8717C994.554 97.8717 1024.33 119.772 1024.33 166.041V340.959C1024.33 424.04 1082.18 507 1171.14 507C1172.44 507 1173.72 506.982 1175 506.948V408.85C1173.68 409.036 1172.39 409.128 1171.14 409.128C1152.02 409.128 1122.25 387.229 1122.25 340.959V166.041C1122.25 82.96 1064.4 0 975.433 0C886.465 0 828.62 82.9601 828.62 166.041V340.959C828.62 387.229 798.843 409.128 779.723 409.128C760.603 409.128 730.826 387.229 730.826 340.959V166.041C730.826 82.9601 672.98 0 584.012 0C495.044 0 437.198 82.9601 437.198 166.041L437.198 340.959C437.198 387.229 407.421 409.128 388.301 409.128C369.181 409.128 339.404 387.228 339.404 340.959L339.404 166.041C339.404 82.9601 281.558 0 192.59 0C103.622 0 45.776 82.9601 45.776 166.041L45.776 360.254C45.776 386.198 25.5508 407.422 0 409.03Z" fill="#7EA2F8"/>
</mask>
<g mask="url(#mask0_1517_565)">
<path d="M0 409.03L0 506.967C79.642 505.307 143.693 440.257 143.693 360.254L143.693 166.041C143.693 119.771 173.47 97.8717 192.59 97.8717C211.71 97.8717 241.487 119.771 241.487 166.041L241.487 340.959C241.487 424.04 299.333 507 388.301 507C477.269 507 535.115 424.04 535.115 340.959V166.041C535.115 119.771 564.892 97.8717 584.012 97.8717C603.132 97.8717 632.909 119.771 632.909 166.041V340.959C632.909 424.04 690.754 507 779.723 507C868.691 507 926.536 424.04 926.536 340.959V166.041C926.536 119.771 956.314 97.8717 975.433 97.8717C994.554 97.8717 1024.33 119.772 1024.33 166.041V340.959C1024.33 424.04 1082.18 507 1171.14 507C1172.44 507 1173.72 506.982 1175 506.948V408.85C1173.68 409.036 1172.39 409.128 1171.14 409.128C1152.02 409.128 1122.25 387.229 1122.25 340.959V166.041C1122.25 82.96 1064.4 0 975.433 0C886.465 0 828.62 82.9601 828.62 166.041V340.959C828.62 387.229 798.843 409.128 779.723 409.128C760.603 409.128 730.826 387.229 730.826 340.959V166.041C730.826 82.9601 672.98 0 584.012 0C495.044 0 437.198 82.9601 437.198 166.041L437.198 340.959C437.198 387.229 407.421 409.128 388.301 409.128C369.181 409.128 339.404 387.228 339.404 340.959L339.404 166.041C339.404 82.9601 281.558 0 192.59 0C103.622 0 45.776 82.9601 45.776 166.041L45.776 360.254C45.776 386.198 25.5508 407.422 0 409.03Z" fill="#7EA2F8"/>
<path d="M581 98.0439C561.924 100.176 535.114 122.138 535.114 166.041V340.959C535.114 424.04 477.269 507 388.301 507C387.532 507 386.765 506.992 386 506.979V409.026C386.782 409.094 387.549 409.128 388.301 409.128C407.421 409.128 437.198 387.229 437.198 340.959V166.041C437.198 83.901 493.74 1.88013 581 0.0322266V98.0439Z" fill="#EFD919"/>
<path d="M192 97.8789C172.864 98.3225 143.693 120.245 143.692 166.041V360.254C143.692 440.257 79.6419 505.308 0 506.968V409.03C25.5507 407.422 45.7762 386.199 45.7764 360.254V166.041C45.7765 83.1436 103.366 0.3677 192 0.00195312V97.8789Z" fill="#EFD919"/>
<path d="M976 0.00195312V97.8789C975.81 97.8747 975.621 97.8721 975.434 97.8721C956.314 97.8721 926.536 119.771 926.536 166.041V340.959C926.536 422.07 871.402 503.064 786 506.86V408.408C804.724 404.296 828.62 382.407 828.62 340.959V166.041C828.62 82.9598 886.466 0 975.434 0C975.623 1.31674e-07 975.811 0.00120545 976 0.00195312Z" fill="#EFD919"/>
</g>
</svg>
