<svg width="616" height="930" viewBox="0 0 616 930" fill="none" xmlns="http://www.w3.org/2000/svg">
<mask id="mask0_1519_768" style="mask-type:alpha" maskUnits="userSpaceOnUse" x="0" y="0" width="616" height="930">
<path fill-rule="evenodd" clip-rule="evenodd" d="M169.833 464.271C169.833 481.15 183.663 494.753 200.536 494.471L306.585 492.703C476.629 489.868 616 626.959 616 797.057V845.068C616 891.975 577.982 930 531.083 930C484.185 930 446.167 891.975 446.167 845.068V797.057C446.167 721.879 384.569 661.29 309.415 662.543L203.366 664.311C91.6028 666.174 4.88688e-06 576.07 0 464.271C-4.88678e-06 352.475 91.5998 262.371 203.362 264.232L309.413 265.998C384.569 267.249 446.167 206.658 446.167 131.478V84.9315C446.167 38.0251 484.185 2.04999e-06 531.083 0C577.982 -2.04999e-06 616 38.0251 616 84.9315V131.478C616 301.576 476.632 438.668 306.587 435.837L200.535 434.072C183.662 433.791 169.833 447.394 169.833 464.271Z" fill="#FFBF00"/>
</mask>
<g mask="url(#mask0_1519_768)">
<path fill-rule="evenodd" clip-rule="evenodd" d="M169.833 464.271C169.833 481.15 183.663 494.753 200.536 494.471L306.585 492.703C476.629 489.868 616 626.959 616 797.057V845.068C616 891.975 577.982 930 531.083 930C484.185 930 446.167 891.975 446.167 845.068V797.057C446.167 721.879 384.569 661.29 309.415 662.543L203.366 664.311C91.6028 666.174 4.88688e-06 576.07 0 464.271C-4.88678e-06 352.475 91.5998 262.371 203.362 264.232L309.413 265.998C384.569 267.249 446.167 206.658 446.167 131.478V84.9315C446.167 38.0251 484.185 2.04999e-06 531.083 0C577.982 -2.04999e-06 616 38.0251 616 84.9315V131.478C616 301.576 476.632 438.668 306.587 435.837L200.535 434.072C183.662 433.791 169.833 447.394 169.833 464.271Z" fill="#EFD919"/>
<path fill-rule="evenodd" clip-rule="evenodd" d="M229.235 605.385C216.498 617.714 188.504 609.791 170.271 609.791C133.173 609.791 94.8016 612.234 66.739 640.328C59.7016 647.373 54.9767 659.543 52.8727 669.015C50.0901 681.544 45.9504 694.97 49.175 707.878C59.9568 751.053 118.379 764.071 136.992 801.339C144.602 816.572 108.301 828.826 100.943 833.727C55.1573 864.209 50.4263 903.564 53.7971 927.188C59.7265 968.73 91.549 1003.57 133.294 1009.54C159.639 1013.31 186.727 1000.97 210.943 992.887C231.18 986.135 261.029 961.972 283.972 973.453C304.567 983.764 325.138 1009.11 341.283 1025.27C355.968 1039.97 390.542 1037.48 408.762 1035.45C418.06 1034.42 430.242 1030.7 438.344 1025.27C508.335 978.376 438.285 920.236 439.268 910.531C440.881 894.612 474.515 901.853 498.428 893.874C544.294 878.569 578.598 826.823 564.986 779.13C555.913 747.346 522.97 731.181 494.73 721.759C483.133 717.889 447.236 722.557 442.042 706.953C439.01 697.849 446.318 633.521 444.311 613C436.725 535.495 355.831 513.486 304.328 528.354C264.861 539.745 246.108 589.049 229.235 605.385Z" fill="#7EA2F8"/>
<path fill-rule="evenodd" clip-rule="evenodd" d="M229.235 -41.6149C216.498 -29.2858 188.504 -37.2092 170.271 -37.2092C133.173 -37.2092 94.8016 -34.7664 66.739 -6.67157C59.7016 0.373177 54.9767 12.5434 52.8727 22.0153C50.0901 34.5438 45.9504 47.9696 49.175 60.8782C59.9568 104.053 118.379 117.071 136.992 154.339C144.602 169.572 108.301 181.826 100.943 186.727C55.1573 217.209 50.4263 256.564 53.7971 280.188C59.7265 321.73 91.549 356.574 133.294 362.543C159.639 366.31 186.727 353.969 210.943 345.887C231.18 339.135 261.029 314.972 283.972 326.453C304.567 336.764 325.138 362.113 341.283 378.275C355.968 392.972 390.542 390.479 408.762 388.454C418.06 387.42 430.242 383.703 438.344 378.275C508.335 331.376 438.285 273.236 439.268 263.531C440.881 247.612 474.515 254.853 498.428 246.874C544.294 231.569 578.598 179.823 564.986 132.13C555.913 100.346 522.97 84.181 494.73 74.7589C483.133 70.8891 447.236 75.5566 442.042 59.9528C439.01 50.8486 446.318 -13.4795 444.311 -33.9999C436.725 -111.505 355.831 -133.514 304.328 -118.646C264.861 -107.255 246.108 -57.9508 229.235 -41.6149Z" fill="#7EA2F8"/>
</g>
</svg>
