<svg width="768" height="517" viewBox="0 0 768 517" fill="none" xmlns="http://www.w3.org/2000/svg">
<mask id="mask0_1519_727" style="mask-type:alpha" maskUnits="userSpaceOnUse" x="0" y="0" width="768" height="517">
<path d="M640 6e-05C581.823 6e-05 532.575 38.806 517.089 91.9436C516.43 94.2051 514.351 95.7538 511.995 95.7538C509.64 95.7538 507.561 94.2055 506.902 91.9445C491.405 38.8068 442.177 0 384 0C325.823 0 276.593 38.8065 261.097 91.9445C260.437 94.2055 258.358 95.7538 256.003 95.7538H255.997C253.642 95.7538 251.563 94.2055 250.903 91.9445C235.407 38.8065 186.177 0 128 0C57.3076 0 0 57.2973 0 127.977C0 222.869 33.3718 303.535 85.5453 373.455C227.791 564.086 536.644 563.527 680.286 373.946C733.568 303.623 768 222.61 768 127.977C768 57.2974 710.693 6e-05 640 6e-05Z" fill="#FF5601"/>
</mask>
<g mask="url(#mask0_1519_727)">
<path d="M640 6e-05C581.823 6e-05 532.575 38.806 517.089 91.9436C516.43 94.2051 514.351 95.7538 511.995 95.7538C509.64 95.7538 507.561 94.2055 506.902 91.9445C491.405 38.8068 442.177 0 384 0C325.823 0 276.593 38.8065 261.097 91.9445C260.437 94.2055 258.358 95.7538 256.003 95.7538H255.997C253.642 95.7538 251.563 94.2055 250.903 91.9445C235.407 38.8065 186.177 0 128 0C57.3076 0 0 57.2973 0 127.977C0 222.869 33.3718 303.535 85.5453 373.455C227.791 564.086 536.644 563.527 680.286 373.946C733.568 303.623 768 222.61 768 127.977C768 57.2974 710.693 6e-05 640 6e-05Z" fill="#FF5601"/>
<path d="M403.598 257.005C449.475 192.586 581.807 36.0499 676.957 66.2764C687.406 69.5991 693.486 85.1438 697.703 93.835C727.188 154.632 657.913 174.384 628.643 221.879C624.879 227.986 599.328 264.505 612.237 272.466C632.098 284.713 695.165 232.002 711.519 220.487C725.739 210.472 744.339 191.444 765.817 168.826C757.471 246.191 725.738 313.958 680.286 373.946C545.044 552.441 263.348 563.374 112.143 404.937C167.851 293.364 240.095 144.977 373.859 140.225C404.745 139.128 401.763 177.074 393.303 196.515C380.116 226.824 273.78 326.249 321.48 355.666C343.958 369.527 392.028 273.254 403.598 257.005Z" fill="#FF0088"/>
</g>
</svg>
