<svg width="1075" height="1075" viewBox="0 0 1075 1075" fill="none" xmlns="http://www.w3.org/2000/svg">
<mask id="mask0_1519_758" style="mask-type:alpha" maskUnits="userSpaceOnUse" x="0" y="0" width="1075" height="1075">
<path d="M537.5 1075C834.353 1075 1075 834.353 1075 537.5C1075 240.647 834.353 1.29759e-05 537.5 0C240.647 -1.29759e-05 1.29759e-05 240.647 0 537.5C-1.29759e-05 834.353 240.647 1075 537.5 1075Z" fill="#FF5601"/>
</mask>
<g mask="url(#mask0_1519_758)">
<path d="M537.5 1075C834.353 1075 1075 834.353 1075 537.5C1075 240.647 834.353 1.29759e-05 537.5 0C240.647 -1.29759e-05 1.29759e-05 240.647 0 537.5C-1.29759e-05 834.353 240.647 1075 537.5 1075Z" fill="#FD86CB"/>
<path d="M753.572 45.1963C942.834 128.383 1075 317.506 1075 537.5C1075 834.353 834.354 1075 537.501 1075C315.198 1075 124.417 940.045 42.6133 747.595C67.5809 752.432 89.694 757.661 105.638 760.908L138.067 768.049C159.671 773.127 181.158 778.734 202.625 784.361C206.557 785.397 297.819 823.782 308.322 797.611C319.058 770.855 308.681 711.749 304.273 688.529C282.143 571.927 258.619 515.425 259.751 396.216C259.964 373.829 282.082 313.969 311.446 298.873C455.048 225.015 738.48 367.634 747.439 325.452C766.762 234.497 755.713 139.386 753.572 45.1963Z" fill="#FF5601"/>
</g>
</svg>
