<svg width="1853" height="977" viewBox="0 0 1853 977" fill="none" xmlns="http://www.w3.org/2000/svg">
<mask id="mask0_1731_73" style="mask-type:alpha" maskUnits="userSpaceOnUse" x="0" y="0" width="1853" height="977">
<path d="M1469.04 671.558L1754.1 506.972L1703.64 419.561L1412.33 587.754C1401.13 573.792 1389.34 560.323 1377 547.385L1617.32 307.06L1545.95 235.69L1301.55 480.102C1287.92 469.8 1273.85 460.045 1259.39 450.87L1433.45 149.365L1346.05 98.8985L1169.97 403.891C1154.78 397.429 1139.28 391.554 1123.5 386.294L1215.04 44.6325L1117.55 18.5091L1025.44 362.297C1009.47 359.747 993.308 357.805 976.965 356.494V0H876.035V356.494C859.692 357.805 843.526 359.747 827.564 362.297L735.449 18.5091L637.959 44.6325L729.504 386.294C713.723 391.554 698.224 397.429 683.035 403.891L506.954 98.8985L419.546 149.365L593.614 450.87C579.145 460.045 565.081 469.8 551.453 480.103L307.049 235.69L235.682 307.06L475.998 547.386C463.657 560.324 451.868 573.792 440.668 587.754L149.36 419.561L98.8949 506.972L383.956 671.558C374.709 687.947 366.184 704.797 358.424 722.066L44.6309 637.982L18.5084 735.476L324.621 817.501C319.553 836.676 315.377 856.214 312.141 876.067H0V977H1853V876.067H1540.86C1537.62 856.214 1533.45 836.677 1528.38 817.502L1834.49 735.476L1808.37 637.982L1494.58 722.066C1486.82 704.798 1478.29 687.947 1469.04 671.558Z" fill="white"/>
</mask>
<g mask="url(#mask0_1731_73)">
<path d="M1469.04 671.558L1754.1 506.972L1703.64 419.561L1412.33 587.754C1401.13 573.792 1389.34 560.323 1377 547.385L1617.32 307.06L1545.95 235.69L1301.55 480.102C1287.92 469.8 1273.85 460.045 1259.39 450.87L1433.45 149.365L1346.05 98.8985L1169.97 403.891C1154.78 397.429 1139.28 391.554 1123.5 386.294L1215.04 44.6325L1117.55 18.5091L1025.44 362.297C1009.47 359.747 993.308 357.805 976.965 356.494V0H876.035V356.494C859.692 357.805 843.526 359.747 827.564 362.297L735.449 18.5091L637.959 44.6325L729.504 386.294C713.723 391.554 698.224 397.429 683.035 403.891L506.954 98.8985L419.546 149.365L593.614 450.87C579.145 460.045 565.081 469.8 551.453 480.103L307.049 235.69L235.682 307.06L475.998 547.386C463.657 560.324 451.868 573.792 440.668 587.754L149.36 419.561L98.8949 506.972L383.956 671.558C374.709 687.947 366.184 704.797 358.424 722.066L44.6309 637.982L18.5084 735.476L324.621 817.501C319.553 836.676 315.377 856.214 312.141 876.067H0V977H1853V876.067H1540.86C1537.62 856.214 1533.45 836.677 1528.38 817.502L1834.49 735.476L1808.37 637.982L1494.58 722.066C1486.82 704.798 1478.29 687.947 1469.04 671.558Z" fill="white"/>
</g>
</svg>
