<svg width="1109" height="548" viewBox="0 0 1109 548" fill="none" xmlns="http://www.w3.org/2000/svg">
<mask id="mask0_1519_741" style="mask-type:alpha" maskUnits="userSpaceOnUse" x="0" y="0" width="1109" height="548">
<path fill-rule="evenodd" clip-rule="evenodd" d="M1108.21 379.562C1114.83 449.314 1063.65 511.239 993.912 517.876L689.006 546.89C616.187 553.819 546.113 517.275 510.116 453.597L399.882 258.593L139.08 283.41C69.3399 290.046 7.44123 238.881 0.825601 169.129C-5.79003 99.3771 45.3826 37.4522 115.123 30.8159L420.029 1.80167C492.849 -5.12769 562.922 31.4166 598.919 95.0949L709.154 290.099L969.955 265.281C1039.7 258.645 1101.59 309.81 1108.21 379.562Z" fill="#F09235"/>
</mask>
<g mask="url(#mask0_1519_741)">
<path fill-rule="evenodd" clip-rule="evenodd" d="M1108.21 379.561C1114.82 449.313 1063.65 511.238 993.911 517.875L689.004 546.889C616.185 553.818 546.111 517.274 510.114 453.596L399.88 258.592L139.078 283.409C69.338 290.045 7.43928 238.88 0.823647 169.128C-5.79199 99.3761 45.3806 37.4512 115.121 30.8149L420.027 1.80069C492.847 -5.12866 562.92 31.4156 598.917 95.0939L709.152 290.098L969.953 265.28C1039.69 258.644 1101.59 309.809 1108.21 379.561Z" fill="#F09235"/>
<path d="M969.954 265.281C1039.69 258.645 1101.59 309.809 1108.21 379.561C1111.59 415.234 1099.86 448.858 1078.26 474.087C1069.51 482.254 1060.54 490.144 1051.38 497.753C1034.69 508.698 1015.16 515.853 993.911 517.875L689.005 546.889C616.186 553.818 546.111 517.274 510.114 453.596L399.88 258.592L139.079 283.409C69.484 290.032 7.69844 239.093 0.867188 169.563C105.725 123.424 229.355 121.42 341.038 174.713L536.289 267.884C592.137 294.534 652.425 300.621 708.663 289.232L709.152 290.098L969.954 265.281Z" fill="#FF0088"/>
</g>
</svg>
